<svg xmlns="http://www.w3.org/2000/svg" version="1.1" xmlns:xlink="http://www.w3.org/1999/xlink" xmlns:svgjs="http://svgjs.dev/svgjs" width="1000" height="171" viewBox="0 0 1000 171"><g transform="matrix(1,0,0,1,-0.6060606060606233,-0.08300877730970058)"><svg viewBox="0 0 396 68" data-background-color="#010536" preserveAspectRatio="xMidYMid meet" height="171" width="1000" xmlns="http://www.w3.org/2000/svg" xmlns:xlink="http://www.w3.org/1999/xlink"><g id="tight-bounds" transform="matrix(1,0,0,1,0.2400000000000091,0.03300933834538)"><svg viewBox="0 0 395.52 67.93398132330923" height="67.93398132330923" width="395.52"><g><svg viewBox="0 0 593.6554891159656 101.96546548868328" height="67.93398132330923" width="395.52"><g><rect width="4.059378047417299" height="88.53730722606362" x="183.4494669653617" y="6.7140791313098305" fill="#fbfbf8" opacity="1" stroke-width="0" stroke="transparent" fill-opacity="1" class="rect-o-0" data-fill-palette-color="primary" rx="1%" id="o-0" data-palette-color="#fbfbf8"></rect></g><g transform="matrix(1,0,0,1,198.13548911596564,14.092188066815133)"><svg viewBox="0 0 395.52 73.78108935505301" height="73.78108935505301" width="395.52"><g id="textblocktransform"><svg viewBox="0 0 395.52 73.78108935505301" height="73.78108935505301" width="395.52" id="textblock"><g><svg viewBox="0 0 395.52 45.013657056145675" height="45.013657056145675" width="395.52"><g transform="matrix(1,0,0,1,0,0)"><svg width="395.52" viewBox="1.9000000953674316 -33.25 296.52001953125 33.75" height="45.013657056145675" data-palette-color="#fbfbf8"><path d="M13.3 0.5Q7.5 0.5 4.7-3.5 1.9-7.5 1.9-16.38 1.9-25.25 4.65-29.25 7.4-33.25 13.6-33.25L13.6-33.25Q17.65-33.25 22.1-31.65L22.1-31.65 21.4-29.1Q16.85-30.65 13.6-30.65L13.6-30.65Q8.9-30.65 6.88-27.33 4.85-24 4.85-16.48 4.85-8.95 6.95-5.53 9.05-2.1 13.3-2.1L13.3-2.1Q15.85-2.1 19.45-3.3L19.45-3.3 19.45-13.3 13.8-13.3 13.8-15.75 22.2-15.75 22.2-1.35Q17.05 0.5 13.3 0.5L13.3 0.5ZM28.75 0L25.85 0 35.25-32.75 40.05-32.75 49.1 0 46.15 0 44.1-7.55 30.85-7.55 28.75 0ZM31.55-10.05L43.45-10.05 38.05-30.25 37.2-30.25 31.55-10.05ZM55.1 0L52.4 0 52.4-32.75 55.05-32.75 62.1-14.4 62.85-14.4 69.9-32.75 72.55-32.75 72.55 0 69.84 0 69.84-25.4 69.65-25.4 64.4-11.85 60.55-11.85 55.3-25.45 55.1-25.45 55.1 0ZM94.49 0L80.54 0 80.54-2.5 86.19-2.5 86.19-30.25 80.54-30.25 80.54-32.75 94.49-32.75 94.49-30.25 88.94-30.25 88.94-2.5 94.49-2.5 94.49 0ZM122.44 0L119.69 0 119.69-5.15 105.44-27.55 105.29-27.55 105.29 0 102.54 0 102.54-32.75 105.24-32.75 119.54-10.1 119.69-10.1 119.69-32.75 122.44-32.75 122.44 0ZM138.29 0.5Q132.49 0.5 129.69-3.5 126.89-7.5 126.89-16.38 126.89-25.25 129.64-29.25 132.39-33.25 138.59-33.25L138.59-33.25Q142.64-33.25 147.09-31.65L147.09-31.65 146.39-29.1Q141.84-30.65 138.59-30.65L138.59-30.65Q133.89-30.65 131.86-27.33 129.84-24 129.84-16.48 129.84-8.95 131.94-5.53 134.04-2.1 138.29-2.1L138.29-2.1Q140.84-2.1 144.44-3.3L144.44-3.3 144.44-13.3 138.79-13.3 138.79-15.75 147.19-15.75 147.19-1.35Q142.04 0.5 138.29 0.5L138.29 0.5ZM186.03-30.2L177.38-30.2 177.38-32.75 197.48-32.75 197.48-30.2 188.78-30.2 188.78 0 186.03 0 186.03-30.2ZM201.98-16.7L201.98-16.7Q201.98-20.6 202.48-23.45L202.48-23.45Q202.98-26.3 204.08-28.6L204.08-28.6Q206.33-33.25 212.48-33.25L212.48-33.25Q219.48-33.2 221.68-26.7L221.68-26.7Q222.98-22.95 222.98-17.88 222.98-12.8 222.48-9.8 221.98-6.8 220.88-4.4L220.88-4.4Q218.58 0.5 212.48 0.5L212.48 0.5Q206.48 0.5 204.13-4.4L204.13-4.4Q201.98-8.85 201.98-16.7ZM220.03-16.3L220.03-16.3Q220.03-19 219.91-20.65 219.78-22.3 219.33-24.3 218.88-26.3 218.11-27.6 217.33-28.9 215.91-29.78 214.48-30.65 212.48-30.65 210.48-30.65 209.06-29.78 207.63-28.9 206.86-27.6 206.08-26.3 205.63-24.3L205.63-24.3Q204.93-21.2 204.93-17.43 204.93-13.65 205.21-11.33 205.48-9 206.23-6.75L206.23-6.75Q207.78-2.1 212.48-2.1L212.48-2.1Q217.28-2.1 218.78-6.8L218.78-6.8Q220.08-10.8 220.03-16.3ZM234.58 0L227.98 0 227.98-32.75 234.68-32.75Q238.38-32.75 240.75-32.02 243.13-31.3 244.78-29.45 246.43-27.6 247.15-24.43 247.88-21.25 247.88-16.38 247.88-11.5 247.08-8.28 246.28-5.05 244.53-3.25 242.78-1.45 240.43-0.73 238.08 0 234.58 0L234.58 0ZM240.55-3.6Q242.68-4.7 243.8-7.73 244.93-10.75 244.93-16.38 244.93-22 243.83-25.03 242.73-28.05 240.63-29.15 238.53-30.25 234.68-30.25L234.68-30.25 230.73-30.25 230.73-2.5 234.58-2.5Q238.43-2.5 240.55-3.6ZM253.73 0L250.83 0 260.23-32.75 265.03-32.75 274.08 0 271.13 0 269.08-7.55 255.83-7.55 253.73 0ZM256.53-10.05L268.43-10.05 263.03-30.25 262.18-30.25 256.53-10.05ZM298.42-32.75L288.77-14.15 288.77 0 286.07 0 286.07-14.15 276.42-32.75 279.72-32.75 287.37-17 287.47-17 295.12-32.75 298.42-32.75Z" opacity="1" transform="matrix(1,0,0,1,0,0)" fill="#fbfbf8" class="wordmark-text-0" data-fill-palette-color="primary" id="text-0"></path></svg></g></svg></g><g transform="matrix(1,0,0,1,0,55.640301159332324)"><svg viewBox="0 0 232.209792 18.140788195720685" height="18.140788195720685" width="232.209792"><g transform="matrix(1,0,0,1,0,0)"><svg width="232.209792" viewBox="-0.4000000059604645 -36.25 602.8400268554688 47.099998474121094" height="18.140788195720685" data-palette-color="#fbfbf8"><path d="M29.55-33.85L16.9 0 12.25 0-0.4-33.85 5.95-33.85 10.15-21.75Q11.75-17.05 12.9-13.48 14.05-9.9 14.65-8L14.65-8Q15.2-9.9 16.32-13.38 17.45-16.85 19.15-21.65L19.15-21.65 23.5-33.85 29.55-33.85ZM37.6 0.2Q34.95 0.2 33.55-1.38 32.15-2.95 32.15-5.45L32.15-5.45 32.15-24.9 37.85-24.9 37.85-5.95Q37.85-4.8 38.2-4.4 38.55-4 39.25-4L39.25-4Q39.45-4 39.67-4 39.9-4 40.1-4.05L40.1-4.05Q40.3-4.05 40.55-4.1L40.55-4.1 41.15-0.5Q40.8-0.3 40.25-0.15L40.25-0.15Q39.8 0 39.12 0.1 38.45 0.2 37.6 0.2L37.6 0.2ZM35.1-36Q36.7-36 37.55-35.05 38.4-34.1 38.4-32.6L38.4-32.6Q38.4-31.1 37.52-30.1 36.65-29.1 34.95-29.1L34.95-29.1Q33.35-29.1 32.47-30.08 31.6-31.05 31.6-32.45L31.6-32.45Q31.6-34 32.47-35 33.35-36 35.1-36L35.1-36ZM67.65-1.4L63.2 0.4Q63.1 0.35 62.75-0.08 62.4-0.5 61.97-1.25 61.55-2 61.15-3.13 60.75-4.25 60.65-5.75L60.65-5.75Q59.8-2.75 57.92-1.23 56.05 0.3 52.85 0.3L52.85 0.3Q50.5 0.3 48.77-0.58 47.05-1.45 45.9-3.08 44.75-4.7 44.2-7 43.65-9.3 43.65-12.1L43.65-12.1Q43.65-14.95 44.52-17.38 45.4-19.8 46.97-21.55 48.55-23.3 50.75-24.3 52.95-25.3 55.6-25.3L55.6-25.3Q56.5-25.3 57.52-25.2 58.55-25.1 59.55-24.95L59.55-24.95 59.55-36.25 65.25-35.25 65.25-12.05Q65.25-9.05 65.59-7.08 65.95-5.1 66.4-3.88 66.84-2.65 67.22-2.1 67.59-1.55 67.65-1.4L67.65-1.4ZM53.8-3.75Q55.05-3.75 56.1-4.6 57.15-5.45 57.92-6.83 58.7-8.2 59.12-9.95 59.55-11.7 59.55-13.55L59.55-13.55 59.55-20.75Q59.05-20.9 58.05-21.1 57.05-21.3 56.25-21.3L56.25-21.3Q54.35-21.3 53.12-20.65 51.9-20 51.15-18.85 50.4-17.7 50.1-16.1 49.8-14.5 49.8-12.6L49.8-12.6Q49.8-10.85 49.9-9.25 50-7.65 50.42-6.43 50.85-5.2 51.65-4.48 52.45-3.75 53.8-3.75L53.8-3.75ZM70.44-11.85Q70.44-15.2 71.37-17.75 72.29-20.3 73.92-22.03 75.54-23.75 77.74-24.63 79.94-25.5 82.49-25.5L82.49-25.5Q84.74-25.5 86.32-24.95 87.89-24.4 88.89-23.45 89.89-22.5 90.37-21.2 90.84-19.9 90.84-18.4L90.84-18.4Q90.84-16.6 89.84-14.98 88.84-13.35 86.97-12.13 85.09-10.9 82.44-10.18 79.79-9.45 76.49-9.4L76.49-9.4Q76.64-8.25 76.97-7.23 77.29-6.2 77.92-5.43 78.54-4.65 79.54-4.2 80.54-3.75 82.04-3.75L82.04-3.75Q83.14-3.75 84.39-4 85.64-4.25 86.69-4.6L86.69-4.6Q87.94-5 89.14-5.5L89.14-5.5 90.64-1.95Q89.34-1.3 87.84-0.8L87.84-0.8Q86.54-0.35 84.84 0 83.14 0.35 81.24 0.35L81.24 0.35Q78.34 0.35 76.29-0.53 74.24-1.4 72.94-3 71.64-4.6 71.04-6.85 70.44-9.1 70.44-11.85L70.44-11.85ZM82.04-21.6Q80.39-21.6 79.32-20.83 78.24-20.05 77.59-18.82 76.94-17.6 76.67-16.07 76.39-14.55 76.34-13L76.34-13Q78.74-13.1 80.42-13.63 82.09-14.15 83.14-14.93 84.19-15.7 84.67-16.6 85.14-17.5 85.14-18.4L85.14-18.4Q85.14-19.85 84.29-20.73 83.44-21.6 82.04-21.6L82.04-21.6ZM105.49-25.5Q111.24-25.5 113.84-22.1 116.44-18.7 116.44-12.75L116.44-12.75Q116.44-9.95 115.74-7.53 115.04-5.1 113.62-3.33 112.19-1.55 110.04-0.53 107.89 0.5 105.04 0.5L105.04 0.5Q102.19 0.5 100.12-0.38 98.04-1.25 96.69-2.9 95.34-4.55 94.72-6.9 94.09-9.25 94.09-12.2L94.09-12.2Q94.09-15.05 94.79-17.48 95.49-19.9 96.92-21.68 98.34-23.45 100.49-24.48 102.64-25.5 105.49-25.5L105.49-25.5ZM104.99-21.3Q103.54-21.3 102.62-20.65 101.69-20 101.17-18.82 100.64-17.65 100.44-16.07 100.24-14.5 100.24-12.7L100.24-12.7Q100.24-10.85 100.47-9.2 100.69-7.55 101.29-6.33 101.89-5.1 102.92-4.4 103.94-3.7 105.54-3.7L105.54-3.7Q106.99-3.7 107.92-4.35 108.84-5 109.37-6.18 109.89-7.35 110.09-8.9 110.29-10.45 110.29-12.25L110.29-12.25Q110.29-14.1 110.07-15.75 109.84-17.4 109.24-18.65 108.64-19.9 107.62-20.6 106.59-21.3 104.99-21.3L104.99-21.3ZM136.54 8.75L137.94 4.4Q138.69 4.7 139.54 5.03 140.39 5.35 141.34 5.65 142.29 5.95 143.26 6.15 144.24 6.35 145.19 6.35L145.19 6.35Q147.99 6.35 149.24 4.67 150.49 3 150.49 0.35L150.49 0.35Q150.49-2.25 149.39-4.9L149.39-4.9Q148.54-2.35 146.71-1.03 144.89 0.3 141.89 0.3L141.89 0.3Q139.54 0.3 137.81-0.58 136.09-1.45 134.94-3.08 133.79-4.7 133.24-7 132.69-9.3 132.69-12.1L132.69-12.1Q132.69-14.95 133.56-17.38 134.44-19.8 136.01-21.55 137.59-23.3 139.79-24.3 141.99-25.3 144.64-25.3L144.64-25.3Q145.84-25.3 147.21-25.15 148.59-25 149.91-24.78 151.24-24.55 152.41-24.3 153.59-24.05 154.44-23.85L154.44-23.85 154.19-10.1Q154.14-8.6 154.36-7.35 154.59-6.1 154.89-4.88 155.19-3.65 155.44-2.4 155.69-1.15 155.69 0.35L155.69 0.35Q155.69 5.65 152.99 8.25 150.29 10.85 145.69 10.85L145.69 10.85Q144.19 10.85 142.69 10.58 141.19 10.3 139.91 9.95 138.64 9.6 137.74 9.25 136.84 8.9 136.54 8.75L136.54 8.75ZM142.84-3.7Q144.04-3.7 145.06-4.5 146.09-5.3 146.89-6.63 147.69-7.95 148.14-9.65 148.59-11.35 148.59-13.15L148.59-13.15 148.59-20.75Q148.09-20.9 147.09-21.1 146.09-21.3 145.29-21.3L145.29-21.3Q143.39-21.3 142.16-20.65 140.94-20 140.19-18.85 139.44-17.7 139.14-16.1 138.84-14.5 138.84-12.6L138.84-12.6Q138.84-10.85 138.94-9.25 139.04-7.65 139.46-6.4 139.89-5.15 140.69-4.42 141.49-3.7 142.84-3.7L142.84-3.7ZM180.83-23.85L180.83-12.05Q180.83-9.05 181.21-7.03 181.58-5 182.03-3.75L182.03-3.75Q182.58-2.25 183.23-1.4L183.23-1.4 178.78 0.4Q178.13-0.25 177.58-1.15L177.58-1.15Q177.13-1.95 176.73-3.08 176.33-4.2 176.23-5.75L176.23-5.75Q175.38-2.75 173.51-1.23 171.63 0.3 168.43 0.3L168.43 0.3Q166.08 0.3 164.36-0.58 162.63-1.45 161.48-3.08 160.33-4.7 159.78-7 159.23-9.3 159.23-12.1L159.23-12.1Q159.23-14.95 160.11-17.38 160.98-19.8 162.56-21.55 164.13-23.3 166.33-24.3 168.53-25.3 171.18-25.3L171.18-25.3Q172.68-25.3 174.31-25.08 175.93-24.85 177.33-24.6 178.73-24.35 179.71-24.13 180.68-23.9 180.83-23.85L180.83-23.85ZM169.38-3.7Q170.63-3.7 171.68-4.55 172.73-5.4 173.51-6.78 174.28-8.15 174.71-9.93 175.13-11.7 175.13-13.55L175.13-13.55 175.13-20.75Q174.63-20.9 173.63-21.1 172.63-21.3 171.83-21.3L171.83-21.3Q169.93-21.3 168.71-20.65 167.48-20 166.73-18.85 165.98-17.7 165.68-16.1 165.38-14.5 165.38-12.6L165.38-12.6Q165.38-10.85 165.48-9.25 165.58-7.65 166.01-6.4 166.43-5.15 167.23-4.42 168.03-3.7 169.38-3.7L169.38-3.7ZM220.73 0L215.08 0 215.08-16.3Q215.08-18.4 214.43-19.63 213.78-20.85 212.18-20.85L212.18-20.85Q211.23-20.85 210.26-20.33 209.28-19.8 208.48-18.8 207.68-17.8 207.18-16.4 206.68-15 206.68-13.3L206.68-13.3 206.68 0 201.03 0 201.03-16.3Q201.03-18.4 200.38-19.63 199.73-20.85 198.13-20.85L198.13-20.85Q197.13-20.85 196.16-20.28 195.18-19.7 194.41-18.6 193.63-17.5 193.16-15.93 192.68-14.35 192.68-12.4L192.68-12.4 192.68 0 186.98 0 186.98-12.6Q186.98-15.6 186.58-17.63 186.18-19.65 185.73-20.9L185.73-20.9Q185.18-22.35 184.53-23.25L184.53-23.25 189.03-25.05Q189.53-24.5 190.03-23.7L190.03-23.7Q190.43-23 190.83-21.98 191.23-20.95 191.48-19.65L191.48-19.65Q192.73-22.65 195.01-23.98 197.28-25.3 199.83-25.3L199.83-25.3Q202.38-25.3 203.81-24 205.23-22.7 205.93-20.65L205.93-20.65Q207.28-23.15 209.41-24.23 211.53-25.3 213.88-25.3L213.88-25.3Q215.83-25.3 217.16-24.68 218.48-24.05 219.26-22.93 220.03-21.8 220.38-20.23 220.73-18.65 220.73-16.7L220.73-16.7 220.73 0ZM232.23 0.2Q229.58 0.2 228.18-1.38 226.78-2.95 226.78-5.45L226.78-5.45 226.78-24.9 232.48-24.9 232.48-5.95Q232.48-4.8 232.83-4.4 233.18-4 233.88-4L233.88-4Q234.08-4 234.3-4 234.53-4 234.73-4.05L234.73-4.05Q234.93-4.05 235.18-4.1L235.18-4.1 235.78-0.5Q235.43-0.3 234.88-0.15L234.88-0.15Q234.43 0 233.75 0.1 233.08 0.2 232.23 0.2L232.23 0.2ZM229.73-36Q231.33-36 232.18-35.05 233.03-34.1 233.03-32.6L233.03-32.6Q233.03-31.1 232.15-30.1 231.28-29.1 229.58-29.1L229.58-29.1Q227.98-29.1 227.1-30.08 226.23-31.05 226.23-32.45L226.23-32.45Q226.23-34 227.1-35 227.98-36 229.73-36L229.73-36ZM260.93 0L255.28 0 255.28-16.15Q255.28-18.25 254.53-19.53 253.78-20.8 251.98-20.8L251.98-20.8Q250.83-20.8 249.75-20.23 248.68-19.65 247.83-18.55 246.98-17.45 246.45-15.88 245.93-14.3 245.93-12.35L245.93-12.35 245.93 0 240.23 0 240.23-12.6Q240.23-15.6 239.83-17.63 239.43-19.65 238.98-20.9L238.98-20.9Q238.43-22.35 237.78-23.25L237.78-23.25 242.28-25.05Q242.78-24.5 243.28-23.7L243.28-23.7Q243.68-23 244.08-21.98 244.48-20.95 244.73-19.65L244.73-19.65Q246.03-22.65 248.48-23.98 250.93-25.3 253.63-25.3L253.63-25.3Q257.48-25.3 259.2-22.98 260.93-20.65 260.93-16.7L260.93-16.7 260.93 0ZM269.57 8.75L270.97 4.4Q271.72 4.7 272.57 5.03 273.42 5.35 274.37 5.65 275.32 5.95 276.3 6.15 277.27 6.35 278.22 6.35L278.22 6.35Q281.02 6.35 282.27 4.67 283.52 3 283.52 0.35L283.52 0.35Q283.52-2.25 282.42-4.9L282.42-4.9Q281.57-2.35 279.75-1.03 277.92 0.3 274.92 0.3L274.92 0.3Q272.57 0.3 270.85-0.58 269.12-1.45 267.97-3.08 266.82-4.7 266.27-7 265.72-9.3 265.72-12.1L265.72-12.1Q265.72-14.95 266.6-17.38 267.47-19.8 269.05-21.55 270.62-23.3 272.82-24.3 275.02-25.3 277.67-25.3L277.67-25.3Q278.87-25.3 280.25-25.15 281.62-25 282.95-24.78 284.27-24.55 285.45-24.3 286.62-24.05 287.47-23.85L287.47-23.85 287.22-10.1Q287.17-8.6 287.4-7.35 287.62-6.1 287.92-4.88 288.22-3.65 288.47-2.4 288.72-1.15 288.72 0.35L288.72 0.35Q288.72 5.65 286.02 8.25 283.32 10.85 278.72 10.85L278.72 10.85Q277.22 10.85 275.72 10.58 274.22 10.3 272.95 9.95 271.67 9.6 270.77 9.25 269.87 8.9 269.57 8.75L269.57 8.75ZM275.87-3.7Q277.07-3.7 278.1-4.5 279.12-5.3 279.92-6.63 280.72-7.95 281.17-9.65 281.62-11.35 281.62-13.15L281.62-13.15 281.62-20.75Q281.12-20.9 280.12-21.1 279.12-21.3 278.32-21.3L278.32-21.3Q276.42-21.3 275.2-20.65 273.97-20 273.22-18.85 272.47-17.7 272.17-16.1 271.87-14.5 271.87-12.6L271.87-12.6Q271.87-10.85 271.97-9.25 272.07-7.65 272.5-6.4 272.92-5.15 273.72-4.42 274.52-3.7 275.87-3.7L275.87-3.7ZM311.77 0.2Q309.12 0.2 307.72-1.38 306.32-2.95 306.32-5.45L306.32-5.45 306.32-24.9 312.02-24.9 312.02-5.95Q312.02-4.8 312.37-4.4 312.72-4 313.42-4L313.42-4Q313.62-4 313.84-4 314.07-4 314.27-4.05L314.27-4.05Q314.47-4.05 314.72-4.1L314.72-4.1 315.32-0.5Q314.97-0.3 314.42-0.15L314.42-0.15Q313.97 0 313.29 0.1 312.62 0.2 311.77 0.2L311.77 0.2ZM309.27-36Q310.87-36 311.72-35.05 312.57-34.1 312.57-32.6L312.57-32.6Q312.57-31.1 311.69-30.1 310.82-29.1 309.12-29.1L309.12-29.1Q307.52-29.1 306.64-30.08 305.77-31.05 305.77-32.45L305.77-32.45Q305.77-34 306.64-35 307.52-36 309.27-36L309.27-36ZM340.47 0L334.82 0 334.82-16.15Q334.82-18.25 334.07-19.53 333.32-20.8 331.52-20.8L331.52-20.8Q330.37-20.8 329.29-20.23 328.22-19.65 327.37-18.55 326.52-17.45 325.99-15.88 325.47-14.3 325.47-12.35L325.47-12.35 325.47 0 319.77 0 319.77-12.6Q319.77-15.6 319.37-17.63 318.97-19.65 318.52-20.9L318.52-20.9Q317.97-22.35 317.32-23.25L317.32-23.25 321.82-25.05Q322.32-24.5 322.82-23.7L322.82-23.7Q323.22-23 323.62-21.98 324.02-20.95 324.27-19.65L324.27-19.65Q325.57-22.65 328.02-23.98 330.47-25.3 333.17-25.3L333.17-25.3Q337.02-25.3 338.74-22.98 340.47-20.65 340.47-16.7L340.47-16.7 340.47 0ZM369.26-1.4L364.81 0.4Q364.71 0.35 364.36-0.08 364.01-0.5 363.59-1.25 363.16-2 362.76-3.13 362.36-4.25 362.26-5.75L362.26-5.75Q361.41-2.75 359.54-1.23 357.66 0.3 354.46 0.3L354.46 0.3Q352.11 0.3 350.39-0.58 348.66-1.45 347.51-3.08 346.36-4.7 345.81-7 345.26-9.3 345.26-12.1L345.26-12.1Q345.26-14.95 346.14-17.38 347.01-19.8 348.59-21.55 350.16-23.3 352.36-24.3 354.56-25.3 357.21-25.3L357.21-25.3Q358.11-25.3 359.14-25.2 360.16-25.1 361.16-24.95L361.16-24.95 361.16-36.25 366.86-35.25 366.86-12.05Q366.86-9.05 367.21-7.08 367.56-5.1 368.01-3.88 368.46-2.65 368.84-2.1 369.21-1.55 369.26-1.4L369.26-1.4ZM355.41-3.75Q356.66-3.75 357.71-4.6 358.76-5.45 359.54-6.83 360.31-8.2 360.74-9.95 361.16-11.7 361.16-13.55L361.16-13.55 361.16-20.75Q360.66-20.9 359.66-21.1 358.66-21.3 357.86-21.3L357.86-21.3Q355.96-21.3 354.74-20.65 353.51-20 352.76-18.85 352.01-17.7 351.71-16.1 351.41-14.5 351.41-12.6L351.41-12.6Q351.41-10.85 351.51-9.25 351.61-7.65 352.04-6.43 352.46-5.2 353.26-4.48 354.06-3.75 355.41-3.75L355.41-3.75ZM388.36-12.7L388.36-24.9 394.06-24.9 394.06-12.05Q394.06-9.05 394.44-7.03 394.81-5 395.26-3.75L395.26-3.75Q395.81-2.25 396.46-1.4L396.46-1.4 392.01 0.4Q391.41-0.15 390.91-1L390.91-1Q390.51-1.7 390.09-2.73 389.66-3.75 389.51-5.15L389.51-5.15Q388.16-2.2 385.71-0.95 383.26 0.3 380.61 0.3L380.61 0.3Q376.66 0.3 374.99-2 373.31-4.3 373.31-8.3L373.31-8.3 373.31-24.9 379.01-24.9 379.01-8.4Q379.01-6.3 379.76-5.1 380.51-3.9 382.31-3.9L382.31-3.9Q383.41-3.9 384.49-4.53 385.56-5.15 386.44-6.3 387.31-7.45 387.84-9.08 388.36-10.7 388.36-12.7L388.36-12.7ZM408.36-25.5L408.36-25.5Q409.81-25.5 411.21-25.2 412.61-24.9 413.71-24.5L413.71-24.5Q415.01-24.05 416.11-23.55L416.11-23.55 414.41-19.65Q413.41-20.1 412.41-20.45L412.41-20.45Q411.56-20.75 410.53-21.03 409.51-21.3 408.51-21.3L408.51-21.3Q407.36-21.3 406.53-20.75 405.71-20.2 405.71-19.1L405.71-19.1Q405.71-16.25 409.86-14.65L409.86-14.65Q411.41-14.05 412.66-13.38 413.91-12.7 414.78-11.8 415.66-10.9 416.11-9.73 416.56-8.55 416.56-6.95L416.56-6.95Q416.56-5.55 415.98-4.2 415.41-2.85 414.28-1.8 413.16-0.75 411.53-0.13 409.91 0.5 407.86 0.5L407.86 0.5Q406.21 0.5 404.61 0.13 403.01-0.25 401.73-0.7 400.46-1.15 399.71-1.55L399.71-1.55 398.96-1.9 400.81-6.1 401.46-5.75Q402.11-5.35 403.11-4.9 404.11-4.45 405.26-4.08 406.41-3.7 407.36-3.7L407.36-3.7Q409.11-3.7 409.96-4.4 410.81-5.1 410.81-6.25L410.81-6.25Q410.81-7.55 409.88-8.63 408.96-9.7 407.11-10.4L407.11-10.4Q403.26-11.85 401.58-13.7 399.91-15.55 399.91-18.5L399.91-18.5Q399.91-19.9 400.56-21.18 401.21-22.45 402.33-23.43 403.46-24.4 405.01-24.95 406.56-25.5 408.36-25.5ZM418.86-20.85L418.86-24.9 423.36-24.9 424.36-30.75 429.06-31.8 429.06-24.9 435.21-24.9 434.51-20.85 429.06-20.85 429.06-6.05Q429.06-4.75 429.76-4.38 430.46-4 431.31-4L431.31-4Q432.01-4 432.71-4.1 433.41-4.2 433.96-4.35L433.96-4.35Q434.61-4.5 435.21-4.7L435.21-4.7 436.16-0.95 435.71-0.8Q435.26-0.6 434.38-0.38 433.51-0.15 432.33 0.03 431.16 0.2 429.76 0.2L429.76 0.2Q428.36 0.2 427.18-0.1 426.01-0.4 425.16-1.07 424.31-1.75 423.83-2.8 423.36-3.85 423.36-5.4L423.36-5.4 423.36-20.85 418.86-20.85ZM450.8-19.7Q449.9-19.7 449-19.25 448.1-18.8 447.4-18.03 446.7-17.25 446.25-16.15 445.8-15.05 445.8-13.7L445.8-13.7 445.8 0 440.1 0 440.1-12.6Q440.1-15.6 439.7-17.63 439.3-19.65 438.85-20.9L438.85-20.9Q438.3-22.35 437.65-23.25L437.65-23.25 442.15-25.05Q442.6-24.5 443.1-23.7L443.1-23.7Q443.5-23 443.9-22.05 444.3-21.1 444.55-19.8L444.55-19.8Q445.55-22.7 447.45-23.98 449.35-25.25 451.75-25.25L451.75-25.25Q452.9-25.25 453.9-24.98 454.9-24.7 454.85-24.7L454.85-24.7 453.25-19.15Q453.3-19.15 452.68-19.43 452.05-19.7 450.8-19.7L450.8-19.7ZM478.7-24.9L478.45-10.1Q478.45-8.6 478.68-7.35 478.9-6.1 479.18-4.88 479.45-3.65 479.7-2.4 479.95-1.15 479.95 0.35L479.95 0.35Q479.95 5.65 477.25 8.25 474.55 10.85 469.95 10.85L469.95 10.85Q468.45 10.85 466.95 10.58 465.45 10.3 464.18 9.95 462.9 9.6 462 9.25 461.1 8.9 460.8 8.75L460.8 8.75 462.2 4.4Q462.9 4.7 463.78 5.03 464.65 5.35 465.58 5.65 466.5 5.95 467.5 6.15 468.5 6.35 469.45 6.35L469.45 6.35Q472.25 6.35 473.5 4.67 474.75 3 474.75 0.35L474.75 0.35Q474.75-2.05 473.75-4.6L473.75-4.6Q472.35-1.95 470.03-0.83 467.7 0.3 465.15 0.3L465.15 0.3Q461.2 0.3 459.53-2 457.85-4.3 457.85-8.3L457.85-8.3 457.85-24.9 463.55-24.9 463.55-8.45Q463.55-6.35 464.3-5.15 465.05-3.95 466.85-3.95L466.85-3.95Q467.8-3.95 468.88-4.5 469.95-5.05 470.83-6.03 471.7-7 472.28-8.38 472.85-9.75 472.85-11.35L472.85-11.35 472.85-24.9 478.7-24.9ZM518.9 0L513.25 0 513.25-16.15Q513.25-18.25 512.5-19.53 511.75-20.8 509.95-20.8L509.95-20.8Q508.8-20.8 507.72-20.23 506.65-19.65 505.8-18.55 504.95-17.45 504.42-15.88 503.9-14.3 503.9-12.35L503.9-12.35 503.9 0 498.2 0 498.2-12.6Q498.2-15.6 497.8-17.63 497.4-19.65 496.95-20.9L496.95-20.9Q496.4-22.35 495.75-23.25L495.75-23.25 500.25-25.05Q500.75-24.5 501.25-23.7L501.25-23.7Q501.65-23 502.05-21.98 502.45-20.95 502.7-19.65L502.7-19.65Q504-22.65 506.45-23.98 508.9-25.3 511.6-25.3L511.6-25.3Q515.45-25.3 517.17-22.98 518.9-20.65 518.9-16.7L518.9-16.7 518.9 0ZM523.69-11.85Q523.69-15.2 524.62-17.75 525.54-20.3 527.17-22.03 528.79-23.75 530.99-24.63 533.19-25.5 535.74-25.5L535.74-25.5Q537.99-25.5 539.57-24.95 541.14-24.4 542.14-23.45 543.14-22.5 543.62-21.2 544.09-19.9 544.09-18.4L544.09-18.4Q544.09-16.6 543.09-14.98 542.09-13.35 540.22-12.13 538.34-10.9 535.69-10.18 533.04-9.45 529.74-9.4L529.74-9.4Q529.89-8.25 530.22-7.23 530.54-6.2 531.17-5.43 531.79-4.65 532.79-4.2 533.79-3.75 535.29-3.75L535.29-3.75Q536.39-3.75 537.64-4 538.89-4.25 539.94-4.6L539.94-4.6Q541.19-5 542.39-5.5L542.39-5.5 543.89-1.95Q542.59-1.3 541.09-0.8L541.09-0.8Q539.79-0.35 538.09 0 536.39 0.35 534.49 0.35L534.49 0.35Q531.59 0.35 529.54-0.53 527.49-1.4 526.19-3 524.89-4.6 524.29-6.85 523.69-9.1 523.69-11.85L523.69-11.85ZM535.29-21.6Q533.64-21.6 532.57-20.83 531.49-20.05 530.84-18.82 530.19-17.6 529.92-16.07 529.64-14.55 529.59-13L529.59-13Q531.99-13.1 533.67-13.63 535.34-14.15 536.39-14.93 537.44-15.7 537.92-16.6 538.39-17.5 538.39-18.4L538.39-18.4Q538.39-19.85 537.54-20.73 536.69-21.6 535.29-21.6L535.29-21.6ZM575.09-24.9L580.89-24.9 580.99-24.5Q581.04-24.05 581.14-23.35 581.24-22.65 581.32-21.7 581.39-20.75 581.39-19.8L581.39-19.8Q581.39-14.25 580.76-10.4 580.14-6.55 578.72-4.17 577.29-1.8 574.94-0.73 572.59 0.35 569.14 0.35L569.14 0.35Q564.29 0.35 562.49-3.65L562.49-3.65Q561.59-1.6 560.01-0.63 558.44 0.35 555.39 0.35L555.39 0.35Q551.49 0.35 549.79-1.9 548.09-4.15 548.09-8.15L548.09-8.15 548.09-24.9 553.79-24.9 553.79-8.6Q553.79-6.5 554.54-5.13 555.29-3.75 557.09-3.75L557.09-3.75Q559.39-3.75 560.64-6 561.89-8.25 561.89-13.45L561.89-13.45 561.89-24.9 567.54-24.9Q567.49-21.15 567.49-17.95L567.49-17.95Q567.49-16.55 567.47-15.15 567.44-13.75 567.44-12.5 567.44-11.25 567.44-10.23 567.44-9.2 567.44-8.6L567.44-8.6Q567.44-6.5 568.24-5.13 569.04-3.75 570.84-3.75L570.84-3.75Q572.59-3.75 573.57-5.1 574.54-6.45 574.99-8.63 575.44-10.8 575.54-13.58 575.64-16.35 575.64-19.2L575.64-19.2Q575.64-20.35 575.57-21.38 575.49-22.4 575.37-23.2 575.24-24 575.19-24.45L575.19-24.45 575.09-24.9ZM594.24-25.5L594.24-25.5Q595.69-25.5 597.09-25.2 598.49-24.9 599.59-24.5L599.59-24.5Q600.89-24.05 601.99-23.55L601.99-23.55 600.29-19.65Q599.29-20.1 598.29-20.45L598.29-20.45Q597.44-20.75 596.41-21.03 595.39-21.3 594.39-21.3L594.39-21.3Q593.24-21.3 592.41-20.75 591.59-20.2 591.59-19.1L591.59-19.1Q591.59-16.25 595.74-14.65L595.74-14.65Q597.29-14.05 598.54-13.38 599.79-12.7 600.66-11.8 601.54-10.9 601.99-9.73 602.44-8.55 602.44-6.95L602.44-6.95Q602.44-5.55 601.86-4.2 601.29-2.85 600.16-1.8 599.04-0.75 597.41-0.13 595.79 0.5 593.74 0.5L593.74 0.5Q592.09 0.5 590.49 0.13 588.89-0.25 587.61-0.7 586.34-1.15 585.59-1.55L585.59-1.55 584.84-1.9 586.69-6.1 587.34-5.75Q587.99-5.35 588.99-4.9 589.99-4.45 591.14-4.08 592.29-3.7 593.24-3.7L593.24-3.7Q594.99-3.7 595.84-4.4 596.69-5.1 596.69-6.25L596.69-6.25Q596.69-7.55 595.76-8.63 594.84-9.7 592.99-10.4L592.99-10.4Q589.14-11.85 587.46-13.7 585.79-15.55 585.79-18.5L585.79-18.5Q585.79-19.9 586.44-21.18 587.09-22.45 588.21-23.43 589.34-24.4 590.89-24.95 592.44-25.5 594.24-25.5Z" opacity="1" transform="matrix(1,0,0,1,0,0)" fill="#fbfbf8" class="slogan-text-1" data-fill-palette-color="secondary" id="text-1"></path></svg></g></svg></g></svg></g></svg></g><g><svg viewBox="0 0 172.82282286217506 101.96546548868328" height="101.96546548868328" width="172.82282286217506"><g><svg version="1.1" xmlns="http://www.w3.org/2000/svg" xmlns:xlink="http://www.w3.org/1999/xlink" x="0" y="0" viewBox="0 0 100 59" enable-background="new 0 0 100 59" xml:space="preserve" height="101.96546548868328" width="172.82282286217506" class="icon-icon-0" data-fill-palette-color="accent" id="icon-0"><path d="M97.901 18l-0.003 0.001C96.896 7.895 88.372 0 78 0c-3.855 0-7.444 1.11-10.498 3H32.498C29.444 1.11 25.855 0 22 0 11.628 0 3.104 7.895 2.102 18.001L2.099 18C1.751 22.175 0 50.691 0 51c0 4.418 3.581 8 8 8 18.377 0 25.943-15.686 28.666-24h26.668C66.057 43.314 73.623 59 92 59c4.419 0 8-3.582 8-8C100 50.691 98.249 22.175 97.901 18zM22 32c-6.629 0-12-5.373-12-12S15.371 8 22 8s12 5.373 12 12S28.629 32 22 32zM78 32c-6.629 0-12-5.373-12-12S71.371 8 78 8s12 5.373 12 12S84.629 32 78 32z" fill="#ffff00" data-fill-palette-color="accent"></path><polygon points="31,17 25,17 25,11 19,11 19,17 13,17 13,23 19,23 19,29 25,29 25,23 31,23 " fill="#ffff00" data-fill-palette-color="accent"></polygon><path d="M78 16c0 2.21-1.79 4-4 4-2.205 0-4-1.79-4-4s1.795-4 4-4C76.21 12 78 13.79 78 16z" fill="#ffff00" data-fill-palette-color="accent"></path><path d="M86 24c0 2.21-1.79 4-4 4-2.205 0-4-1.79-4-4s1.795-4 4-4C84.21 20 86 21.79 86 24z" fill="#ffff00" data-fill-palette-color="accent"></path></svg></g></svg></g></svg></g><defs></defs></svg><rect width="395.52" height="67.93398132330923" fill="none" stroke="none" visibility="hidden"></rect></g></svg></g></svg>